<svg width="109" height="27" viewBox="0 0 109 27" fill="none" xmlns="http://www.w3.org/2000/svg">
<g clip-path="url(#clip0_5_2343)">
<g clip-path="url(#clip1_5_2343)">
<g clip-path="url(#clip2_5_2343)">
<path d="M7.36859 0.720428C11.3586 0.720428 13.0736 2.57543 13.0736 6.35543V7.23043C13.0736 9.75043 12.3036 11.3604 10.5886 12.1654C12.6536 12.9704 13.4586 14.8254 13.4586 17.4154V19.4104C13.4586 23.1904 11.4636 25.2204 7.61359 25.2204H1.55859V0.720428H7.36859ZM7.12359 14.1954H5.40859V21.7204H7.61359C8.90859 21.7204 9.60859 21.1254 9.60859 19.3054V17.1704C9.60859 14.8954 8.87359 14.1954 7.12359 14.1954ZM7.26359 4.22043H5.40859V10.6954H6.91359C8.34859 10.6954 9.22359 10.0654 9.22359 8.10543V6.74043C9.22359 4.99043 8.62859 4.22043 7.26359 4.22043ZM21.0624 6.35543V19.5854C21.0624 21.3354 21.8324 22.0004 23.0574 22.0004C24.2824 22.0004 25.0524 21.3354 25.0524 19.5854V6.35543C25.0524 4.60543 24.2824 3.94043 23.0574 3.94043C21.8324 3.94043 21.0624 4.60543 21.0624 6.35543ZM17.2124 19.3404V6.60043C17.2124 2.68043 19.2774 0.44043 23.0574 0.44043C26.8374 0.44043 28.9024 2.68043 28.9024 6.60043V19.3404C28.9024 23.2604 26.8374 25.5004 23.0574 25.5004C19.2774 25.5004 17.2124 23.2604 17.2124 19.3404ZM41.9166 0.720428H45.4866L41.4616 12.6204L45.7666 25.2204H41.7066L38.5566 15.5254L35.3716 25.2204H31.7666L36.0716 12.6204L32.0466 0.720428H36.0366L38.9416 9.75043L41.9166 0.720428ZM56.443 16.0854H60.083V19.3404C60.083 23.2604 58.123 25.5004 54.343 25.5004C50.563 25.5004 48.603 23.2604 48.603 19.3404V6.60043C48.603 2.68043 50.563 0.44043 54.343 0.44043C58.123 0.44043 60.083 2.68043 60.083 6.60043V8.98043H56.443V6.35543C56.443 4.60543 55.673 3.94043 54.448 3.94043C53.223 3.94043 52.453 4.60543 52.453 6.35543V19.5854C52.453 21.3354 53.223 21.9654 54.448 21.9654C55.673 21.9654 56.443 21.3354 56.443 19.5854V16.0854ZM72.709 0.720428L76.629 25.2204H72.744L72.079 20.7754H67.354L66.689 25.2204H63.154L67.074 0.720428H72.709ZM69.699 5.06043L67.844 17.4504H71.554L69.699 5.06043ZM92.1419 25.2204H88.2219C88.0119 24.5904 87.8719 24.2054 87.8719 22.2104V18.3604C87.8719 16.0854 87.1019 15.2454 85.3519 15.2454H84.0219V25.2204H80.1719V0.720428H85.9819C89.9719 0.720428 91.6869 2.57543 91.6869 6.35543V8.28043C91.6869 10.8004 90.8819 12.4454 89.1669 13.2504C91.0919 14.0554 91.7219 15.9104 91.7219 18.4654V22.2454C91.7219 23.4354 91.7569 24.3104 92.1419 25.2204ZM85.8769 4.22043H84.0219V11.7454H85.5269C86.9619 11.7454 87.8369 11.1154 87.8369 9.15543V6.74043C87.8369 4.99043 87.2419 4.22043 85.8769 4.22043ZM95.5139 6.60043C95.5139 2.68043 97.4389 0.44043 101.184 0.44043C104.929 0.44043 106.854 2.68043 106.854 6.60043V7.37043H103.214V6.35543C103.214 4.60543 102.514 3.94043 101.289 3.94043C100.064 3.94043 99.3639 4.60543 99.3639 6.35543C99.3639 11.3954 106.889 12.3404 106.889 19.3404C106.889 23.2604 104.929 25.5004 101.149 25.5004C97.3689 25.5004 95.4089 23.2604 95.4089 19.3404V17.8354H99.0489V19.5854C99.0489 21.3354 99.8189 21.9654 101.044 21.9654C102.269 21.9654 103.039 21.3354 103.039 19.5854C103.039 14.5454 95.5139 13.6004 95.5139 6.60043Z" fill="white"/>
</g>
</g>
</g>
<defs>
<clipPath id="clip0_5_2343">
<rect width="108" height="26" fill="white" transform="translate(0.160156 0.220215)"/>
</clipPath>
<clipPath id="clip1_5_2343">
<rect width="108" height="26" fill="white" transform="translate(0.160156 0.220215)"/>
</clipPath>
<clipPath id="clip2_5_2343">
<rect width="108" height="26" fill="white" transform="translate(0.160156 0.220215)"/>
</clipPath>
</defs>
</svg>
